<svg xmlns="http://www.w3.org/2000/svg" width="512" height="512" viewBox="0 0 512 512"><g transform="scale(8)"><path d="M21 18c-1.654 0-3 1.346-3 3 0 1.654 1.346 3 3 3 1.654 0 3-1.346 3-3 0-1.654-1.346-3-3-3zm0 4c-.551 0-1-.449-1-1 0-.551.449-1 1-1 .551 0 1 .449 1 1 0 .551-.449 1-1 1zM13 26c-1.654 0-3 1.346-3 3 0 1.654 1.346 3 3 3 1.654 0 3-1.346 3-3 0-1.654-1.346-3-3-3zm0 4c-.551 0-1-.449-1-1 0-.551.449-1 1-1 .551 0 1 .449 1 1 0 .551-.449 1-1 1zM29 10c-1.654 0-3 1.346-3 3 0 1.654 1.346 3 3 3 1.654 0 3-1.346 3-3 0-1.654-1.346-3-3-3zm0 4c-.551 0-1-.449-1-1 0-.551.449-1 1-1 .551 0 1 .449 1 1 0 .551-.449 1-1 1z"/><path d="M57.707,36.494l-19.799,-19.799c-0.391,-0.391 -1.023,-0.391 -1.414,0l-0.494,0.494v-10.189c0,-0.552 -0.447,-1 -1,-1h-28c-0.552,0 -1,0.448 -1,1v28c0,0.553 0.448,1 1,1h10.189l-0.494,0.494c-0.391,0.391 -0.391,1.023 0,1.414l19.799,19.799c0.195,0.195 0.451,0.293 0.707,0.293c0.256,0 0.512,-0.098 0.707,-0.293l19.799,-19.799c0.391,-0.39 0.391,-1.023 0,-1.414Zm-38.707,-2.494h-11v-26h26v11c0,0.056 0.023,0.104 0.032,0.158l-14.874,14.874c-0.054,-0.009 -0.102,-0.032 -0.158,-0.032Zm18.201,21.586l-18.385,-18.385l18.385,-18.385l18.385,18.385l-18.385,18.385Z"/><path d="M34.938 23.624c-.566.566-.879 1.32-.879 2.122 0 .802.312 1.555.878 2.121.566.567 1.32.879 2.122.879.802 0 1.556-.312 2.121-.879.566-.567.879-1.32.879-2.121 0-.802-.312-1.555-.878-2.121-1.131-1.133-3.109-1.134-4.243-.001zm3.122 2.122c0 .267-.104.518-.294.708-.377.377-1.036.378-1.413-.001-.189-.189-.293-.439-.293-.707 0-.268.104-.518.293-.707.189-.189.44-.293.707-.293.268 0 .518.104.707.293.189.189.293.44.293.707zM33.523 29.279c-1.133-1.131-3.107-1.132-4.244.002-1.168 1.171-1.167 3.074.001 4.242.566.566 1.32.879 2.122.879.801 0 1.554-.312 2.123-.879 1.167-1.169 1.167-3.073-.002-4.244zm-1.412 2.83c-.379.378-1.038.378-1.416 0-.39-.389-.39-1.024-.001-1.413.189-.189.441-.293.708-.293.267 0 .519.104.707.292.391.389.391 1.025.002 1.414zM23.624 34.938c-.566.567-.878 1.32-.878 2.121 0 .802.312 1.555.878 2.119.566.568 1.32.881 2.122.881.801 0 1.555-.312 2.12-.878.567-.566.879-1.319.879-2.121 0-.803-.312-1.556-.878-2.122-1.133-1.133-3.11-1.134-4.243 0zm2.828 2.829c-.377.377-1.034.379-1.414-.002-.188-.188-.292-.438-.292-.705 0-.268.104-.519.293-.707.189-.189.44-.293.707-.293.267 0 .517.104.707.294.188.188.292.439.292.706.001.267-.103.517-.293.707zM48.372 40.059c.802 0 1.556-.312 2.121-.879 1.17-1.17 1.17-3.073 0-4.244-1.136-1.131-3.11-1.132-4.242.001-1.17 1.17-1.17 3.073 0 4.243.566.566 1.32.879 2.121.879zm-.707-3.708c.188-.188.439-.293.707-.293.267 0 .519.104.707.293.39.391.39 1.024-.001 1.415-.376.378-1.033.378-1.413 0-.39-.391-.39-1.025-7.10543e-15-1.415zM40.594 44.836c.566.566 1.32.879 2.122.879.801 0 1.554-.312 2.122-.878 1.167-1.17 1.167-3.073-.002-4.245-1.133-1.132-3.109-1.13-4.242.002-.566.566-.878 1.319-.878 2.121 0 .802.311 1.555.878 2.121zm1.414-2.828c.188-.188.44-.293.708-.293.267 0 .519.104.706.291.39.392.391 1.027.002 1.416-.38.378-1.04.377-1.416 0-.188-.188-.292-.439-.292-.707 0-.268.103-.519.292-.707zM34.937 46.251c-.566.566-.879 1.32-.878 2.122 0 .802.312 1.555.878 2.118.566.568 1.32.881 2.122.881.801 0 1.555-.312 2.121-.878.566-.566.879-1.32.879-2.122 0-.801-.312-1.555-.879-2.121-1.132-1.133-3.11-1.133-4.243 0zm2.829 2.828c-.379.377-1.034.379-1.415-.002-.188-.188-.292-.438-.292-.705 0-.268.104-.519.292-.707.189-.188.44-.293.707-.293.268 0 .519.104.708.293.188.189.293.44.293.707 0 .268-.104.518-.293.707z"/></g></svg>